<?xml version="1.0" standalone="no"?>
<!DOCTYPE svg PUBLIC "-//W3C//DTD SVG 20010904//EN"
 "http://www.w3.org/TR/2001/REC-SVG-20010904/DTD/svg10.dtd">
<svg version="1.0" xmlns="http://www.w3.org/2000/svg"
 width="756.000000pt" height="756.000000pt" viewBox="0 0 756.000000 756.000000"
 preserveAspectRatio="xMidYMid meet">
<metadata>
Created by potrace 1.14, written by Peter Selinger 2001-2017
</metadata>
<g transform="translate(0.000000,756.000000) scale(0.100000,-0.100000)"
fill="#000000" stroke="none">
<path d="M4904 6738 c-26 -35 -53 -68 -59 -74 -5 -6 -23 -29 -40 -50 -53 -68
-285 -358 -304 -381 -10 -12 -49 -61 -86 -110 -38 -48 -73 -92 -79 -98 -6 -5
-24 -28 -41 -50 -16 -22 -34 -45 -40 -52 -5 -7 -15 -18 -20 -25 -40 -51 -92
-115 -100 -124 -5 -7 -35 -44 -65 -83 -30 -39 -57 -71 -60 -71 -4 0 -6 250 -6
556 1 306 -2 561 -6 567 -5 9 -356 12 -1388 13 l-1380 0 -1 -45 c0 -25 0 -652
-1 -1393 l-1 -1348 -31 0 c-17 -1 -289 -1 -603 -1 -315 0 -573 -4 -573 -9 0
-5 6 -15 13 -22 7 -7 37 -44 67 -83 30 -38 57 -72 60 -75 8 -8 74 -90 130
-164 29 -37 60 -76 69 -85 9 -9 27 -32 41 -51 25 -33 66 -85 85 -106 5 -7 19
-24 29 -39 11 -14 28 -36 38 -48 11 -12 28 -32 39 -45 10 -12 19 -26 19 -31 0
-5 4 -11 8 -13 4 -1 65 -75 135 -163 70 -88 140 -176 156 -195 16 -19 52 -64
80 -100 28 -36 57 -72 64 -80 7 -8 82 -103 167 -210 85 -107 159 -200 165
-207 5 -6 21 -26 35 -44 14 -18 30 -37 35 -43 6 -6 22 -27 37 -48 15 -20 33
-42 40 -50 7 -7 32 -38 55 -68 23 -30 58 -73 77 -95 20 -22 36 -44 36 -49 0
-5 6 -14 14 -20 10 -8 115 -139 179 -221 4 -5 17 -21 28 -35 11 -14 30 -38 42
-53 12 -15 30 -38 41 -50 10 -12 55 -69 100 -126 44 -57 88 -111 96 -120 8 -9
28 -35 44 -56 17 -22 33 -42 36 -45 3 -3 19 -23 35 -45 17 -22 33 -42 36 -45
4 -3 24 -27 44 -55 21 -27 41 -52 45 -55 3 -3 19 -23 36 -45 16 -21 36 -46 44
-55 8 -9 26 -31 40 -49 59 -79 51 -79 113 2 31 40 68 87 82 103 14 16 29 34
33 39 23 32 100 130 117 149 6 6 44 54 85 106 41 52 78 97 82 98 5 2 8 10 8
17 0 7 4 15 9 17 5 2 59 66 120 143 145 183 153 193 174 218 10 12 28 35 40
50 30 39 127 160 137 170 4 5 7 -245 8 -555 0 -310 1 -568 1 -574 1 -12 2754
-14 2767 -2 4 4 7 631 7 1393 0 1265 1 1385 16 1386 9 0 280 1 604 1 323 1
587 3 587 6 0 5 -75 105 -95 128 -10 11 -24 28 -112 139 -26 33 -52 65 -58 72
-11 14 -9 11 -85 108 -30 39 -57 72 -60 75 -3 3 -39 48 -80 100 -41 52 -82
104 -92 115 -9 11 -107 135 -218 275 -112 140 -232 291 -267 335 -98 122 -186
232 -286 358 -12 16 -30 38 -41 50 -10 12 -30 38 -45 57 -14 19 -48 62 -74 95
-64 79 -131 163 -164 205 -21 27 -187 234 -200 250 -7 8 -44 56 -83 105 -40
50 -84 106 -100 125 -16 19 -78 98 -139 175 -62 77 -117 147 -124 155 -6 8
-37 47 -67 85 -30 39 -62 77 -72 86 -10 9 -18 19 -18 23 0 6 -79 106 -109 139
-4 4 -30 -21 -57 -55z m-1348 -417 c8 -1 11 -180 11 -631 l0 -629 -130 -163
c-71 -90 -197 -248 -280 -353 -83 -104 -156 -197 -164 -205 -12 -13 -462 -578
-590 -741 l-52 -66 979 1 c539 1 980 -1 980 -4 0 -3 -50 -68 -111 -145 -61
-76 -123 -155 -137 -173 -15 -19 -35 -43 -44 -53 -10 -10 -18 -23 -18 -28 0
-5 -4 -11 -9 -13 -5 -1 -46 -50 -91 -108 -45 -58 -85 -107 -89 -110 -3 -3 -26
-32 -51 -65 -25 -33 -49 -65 -55 -71 -14 -17 -124 -153 -172 -214 -7 -8 -32
-40 -56 -70 -24 -30 -171 -215 -327 -410 -155 -195 -289 -364 -299 -375 -9
-11 -32 -40 -51 -65 -19 -25 -39 -50 -45 -56 -5 -6 -37 -45 -70 -87 -33 -42
-65 -77 -70 -77 -6 0 -65 68 -130 152 -66 84 -127 159 -135 168 -8 8 -26 31
-40 50 -13 19 -27 37 -30 40 -3 3 -36 43 -73 90 -38 47 -79 99 -92 115 -13 17
-34 44 -47 60 -12 17 -25 32 -28 35 -3 3 -19 23 -35 45 -17 22 -33 42 -36 45
-3 3 -50 61 -104 130 -55 69 -103 127 -107 128 -4 2 -8 10 -8 17 0 7 -4 15 -8
17 -5 2 -111 131 -236 288 -125 157 -232 292 -239 300 -7 8 -30 38 -52 65 -22
28 -42 52 -45 55 -3 3 -17 21 -32 42 -15 20 -33 42 -40 50 -7 7 -35 42 -63 78
-27 36 -52 67 -55 70 -9 8 -60 76 -60 81 0 2 168 4 372 3 l373 0 -1 1392 0
1393 20 3 c18 3 1838 1 1872 -1z m1475 -313 c41 -51 78 -99 84 -106 5 -7 15
-18 20 -25 18 -20 139 -172 163 -204 12 -16 33 -43 46 -59 30 -36 820 -1028
861 -1080 17 -21 54 -67 83 -103 62 -77 81 -101 159 -200 32 -40 91 -114 131
-163 40 -50 71 -93 69 -95 -3 -2 -169 -4 -370 -4 -271 0 -366 -4 -369 -12 -2
-7 -3 -634 -3 -1394 l1 -1383 -951 0 -951 0 0 633 c-1 347 2 634 5 637 8 7 50
58 81 100 14 18 39 50 55 70 17 20 44 53 60 74 17 21 89 111 160 201 72 89
144 180 160 201 17 21 50 63 75 94 25 30 88 109 140 175 52 66 100 127 107
135 34 42 202 253 228 286 17 21 44 54 60 74 57 70 75 94 75 101 0 4 -437 7
-971 8 -534 0 -973 2 -975 4 -2 2 17 30 43 63 27 33 62 77 78 98 17 21 35 44
40 50 8 9 126 157 170 214 5 7 17 21 26 30 8 9 58 71 109 137 106 135 95 120
187 235 38 47 91 114 118 150 28 36 57 72 65 81 8 9 88 108 177 220 185 233
178 224 298 375 50 62 155 194 234 293 80 100 146 181 147 181 1 0 35 -42 75
-92z"/>
</g>
</svg>
